<svg xmlns="http://www.w3.org/2000/svg" width="155" height="79" fill="none"><g clip-path="url(#a)"><path fill="#F2F2F2" d="m148.12 43.676-.486 3.855-1.205 9.575h-24.208c.189-2.146.447-5.235.723-8.57l.083-1.005a7380.07 7380.07 0 0 0 1.45-17.869l3.183.591 6.175 1.145 2.516.466 6.738 1.251c3.359.623 5.67 5.473 5.031 10.56Z"/><path fill="#FFB6B6" d="m129.808 14.15 2.977 5.194-5.721 4.044-2.441-6.386 5.185-2.852Z"/><path fill="#FFB6B6" d="M126.018 19.064c4.074 0 7.375-3.292 7.375-7.354 0-4.061-3.301-7.354-7.375-7.354-4.073 0-7.375 3.293-7.375 7.354 0 4.062 3.302 7.354 7.375 7.354Z"/><path fill="#2F2E41" d="M125.489 13.354c-.586-.889-.356-1.353-.846-1.68 0 0-.198-.131-1.609-.206-.317-2.269-.711-2.544-.711-2.544-.455-.317-1.13-.214-1.55-.02-.888.41-.785 1.296-1.383 1.465-.826.235-2.329-1.086-2.477-2.597-.121-1.233.676-2.43.992-2.367.313.062 1.063-.892 1.468-.878.277.01 1.407-.48 1.711-.441.332.042 1.427.611 1.472.481.317-.904.224-1.155.493-1.414.477-.458 1.256-.14 2.48.032 2.516.353 2.956-.474 4.245.086.652.284 1.197 1.048 2.261 2.564 1.487 2.121 2.231 3.182 2.236 4.419.005 1.26-.608 1.18-.877 3.048-.299 2.079.337 3.03-.358 3.705-.537.522-1.63.646-2.204.188-.982-.785.304-2.677-.783-4.06-.668-.849-2.01-1.226-2.625-.807-.695.475-.312 1.867-.801 2-.419.112-1.032-.819-1.134-.974Z"/><path fill="#F9A826" d="M142.669 42.318c-.206 3.507-1.023 4.614-1.309 8.756-.063.91-.1 1.965-.1 3.224l.002.934c0 .646-.013 1.256-.088 1.874a8.292 8.292 0 0 1-.318 1.516h-15.885c-.001-.004-.001-.007-.003-.01a11.031 11.031 0 0 1-.234-1.506c-.015-.134-.027-.265-.04-.395-.048-.52-.096-1.01-.211-1.479a3.788 3.788 0 0 0-1.005-1.845 5.047 5.047 0 0 0-.697-.592l-.132-.091c-.634-.433-1.232-.745-1.751-1.63-.009-.012-.016-.026-.023-.039a5.365 5.365 0 0 1-.49-1.104c-.177-.563-.285-1.27-.091-1.995.459-1.715 2.161-1.886 3.553-3.62.15-.187.298-.393.44-.623.629-1.02.799-1.919.999-2.987a11.545 11.545 0 0 0 .131-.88 9.693 9.693 0 0 0-.074-2.679c-.425-2.57-1.681-4.16-.794-6.465.279-.724.675-1.268 1.073-1.733.844-.986 1.712-1.626 1.561-2.9-.152-1.283-1.128-1.46-1.237-2.581-.056-.567.13-1.165.479-1.751v-.002c1.116-1.888 3.902-3.627 5.672-3.571.327.009.617.082.858.223.875.513.51 1.634 1.85 3.207.995 1.168 2.122 1.635 2.549 1.856 1.694.881 3.071 3.479 4.006 6.8l.021.077c.578 2.081.986 4.444 1.188 6.84a41.47 41.47 0 0 1 .146 3.044 30.09 30.09 0 0 1-.046 2.127Z"/><path fill="#FFB6B6" d="m130.774 54.334-.324.898-.204.564-.472 1.31-.547 1.516h-3.517l.59-1.516.274-.706.454-1.168.761-1.961 2.985 1.063Z"/><path fill="#F9A826" d="M141.415 29.924c-.009.116-.021.244-.034.384-.139 1.415-.468 3.949-.949 6.84a125.376 125.376 0 0 1-.885 4.762c-.719 3.482-1.613 6.91-2.624 9.164-.18.407-.366.774-.556 1.099-.144.247-.297.492-.456.733a21.537 21.537 0 0 1-1.691 2.237c-.023.03-.05.06-.077.09a29.482 29.482 0 0 1-1.772 1.874 33.451 33.451 0 0 1-1.669 1.515h-5.711l-.023-.01-.823-.365s.234-.274.626-.793a33.39 33.39 0 0 0 .629-.86c.276-.388.589-.845.925-1.362.651-1 1.393-2.23 2.142-3.655.086-.166.174-.333.261-.503.002-.005.006-.01.007-.016.149-.289.296-.586.442-.89 1.243-2.578 1.599-4.717 1.701-5.41.143-.982.341-2.353.288-3.861-.036-.995-.181-2.047-.526-3.092v-.002a8.87 8.87 0 0 0-.828-1.811c-1.01-1.673-1.831-1.742-2.484-3.565-.193-.54-.631-1.76-.497-3.047v-.002a4.06 4.06 0 0 1 .079-.48 3.633 3.633 0 0 1 .559-1.291c.499-.721 1.181-1.15 1.79-1.404l.002-.002a5.13 5.13 0 0 1 1.431-.365c2.612-.232 4.638 1.957 5.745 3.154a16.4 16.4 0 0 0 1.177 1.164c2.784 2.479 3.547.895 3.746.077a2.91 2.91 0 0 0 .055-.307ZM141.424 29.831c0 .01-.001.04-.009.09.004-.027.006-.054.008-.079l.001-.01Z"/><path fill="#E6E6E6" d="M127.223 67.455H31.368c-.89 0-1.616.722-1.616 1.61 0 .89.726 1.612 1.616 1.612h95.855c.89 0 1.614-.722 1.614-1.612 0-.888-.724-1.61-1.614-1.61ZM105.951 75.778H52.638c-.89 0-1.614.722-1.614 1.61 0 .888.724 1.612 1.614 1.612h53.313c.89 0 1.616-.724 1.616-1.612 0-.888-.726-1.61-1.616-1.61Z"/><path fill="#FFB6B6" d="m42.034 14.492 6.041-2.536 2.591 5.297-6.348 2.584-2.284-5.345Z"/><path fill="#000" d="m42.034 14.492 6.041-2.536 2.591 5.297-6.348 2.584-2.284-5.345Z" opacity=".1"/><path fill="#F9A826" d="m42.893 12.473 5.96 6.847s-4.146 13.047-8.292 14.21c-4.146 1.163-11.79 6.847-11.79 6.847l-9.587-6.2 4.664-6.848S35.12 11.956 38.1 11.956c2.98 0 4.793.517 4.793.517Z"/><path fill="#2F2E41" d="M34.841 57.106H20.968l-.877-1.169-3.58-4.773-.825-1.098s-3.11-5.684-2.461-10.852c.647-5.167 7.384-6.33 7.384-6.33h.278l8.247 7.227-.492 6.725 2.612 4.328 3.587 5.942Z"/><path fill="#2F2E41" d="M23.81 57.106H20.09v-5.49l3.718 5.49Z"/><path fill="#F2F2F2" d="m104.008 48.771-.463 2.393-1.148 5.942h-23.06c.18-1.331.427-3.249.69-5.318l.079-.624c.66-5.202 1.38-11.09 1.38-11.09l3.032.368 5.882.71 2.397.29 6.418.776c3.2.386 5.402 3.396 4.793 6.553Z"/><path fill="#2F2E41" d="M136.642 57.106h-12.508c.191-.223.298-.352.298-.352l3.75-.618 7.725-1.271s.352.908.735 2.241Z"/><path fill="#A0616A" d="m83.589 17.075 5.439 7.67-9.488.283-1.018-7.208 5.067-.745Z"/><path fill="#000" d="m83.589 17.075 5.439 7.67-9.488.283-1.018-7.208 5.067-.745Z" opacity=".1"/><path fill="#A0616A" d="M56.765 32.967c-.698-2.007-2.303-3.275-3.584-2.832-1.281.443-1.754 2.43-1.055 4.437a5.314 5.314 0 0 0 1.334 2.13l3.065 8.469 3.955-1.519-3.441-8.187a5.304 5.304 0 0 0-.274-2.498Z"/><path fill="#CCC" d="m93.583 29.06-.007 7.816-.73 2.887-1.5 5.939-1.092 5.462-.814 4.07-.29 1.452c-.219.146-.437.286-.654.42h-18.95c-1.077-.644-1.68-1.146-1.68-1.146s.298-.279.64-.727c.574-.757 1.27-1.997.844-3.182-.09-.248-.113-.55-.086-.887.174-2.225 2.514-5.987 2.514-5.987l-.485-5.583-.212-2.447 1.498-11.93 4.883-2.83.843-.082 8.321-.448 3.44.198.156.042 3.361 6.962Z"/><path fill="#FFB6B6" d="M93.953 57.106h-4.146l-.183-1.873-.004-.037 1.174-.08 3.054-.208.053 1.12.041.861.01.217Z"/><path fill="#CCC" d="m94.973 30.95 1.742 10.188-1.421 10.026-.222 1.56-.391 2.756-.12.847.003.092.03.687h-4.923l-.181-1.873-.016-.168-.37-3.837-.007-.064-.786-8.136 1.541-5.88.114-.433v-.002l.671-10.068-.52-4.576-.005-.043.03.02c.027.017.055.033.08.051a10.21 10.21 0 0 1 4.751 8.852ZM74.343 27.17l-1.894-1.953s-4.052 1.822-4.254 2.832c-.202 1.011-7.358 15.856-7.358 15.856l-3.113-8.29-4.053 2.697s3.252 12.872 6.293 13.476c3.04.605 13.233-15.235 13.233-15.235l1.146-9.384Z"/><path fill="#E6E6E6" d="M151.214 51.074H3.784A3.784 3.784 0 0 0 0 54.85a3.782 3.782 0 0 0 3.784 3.773h147.43A3.784 3.784 0 0 0 155 54.849a3.785 3.785 0 0 0-3.786-3.775Z"/><path fill="#3F3D56" d="m92.72 39.572-.286 13.338a2.378 2.378 0 0 1-2.38 2.323H65.447a2.378 2.378 0 0 1-2.378-2.244L62.34 39.65a2.377 2.377 0 0 1 2.377-2.504H90.34a2.377 2.377 0 0 1 2.38 2.425Z"/><path fill="#FFB6B6" d="M52.998 17.711c3.252 0 5.888-2.628 5.888-5.87s-2.636-5.87-5.888-5.87c-3.25 0-5.886 2.628-5.886 5.87s2.635 5.87 5.886 5.87ZM43.152 27.2l.648 6.976 4.405 17.698-3.806 1.33-6.429-19.286-.888-7.751 6.07 1.033Z"/><path fill="#3F3D56" d="m41.4 39.572-.287 13.338a2.378 2.378 0 0 1-2.38 2.323H14.127a2.378 2.378 0 0 1-2.377-2.244l-.731-13.338a2.377 2.377 0 0 1 2.377-2.504h25.623a2.377 2.377 0 0 1 2.381 2.425Z"/><path fill="#FFB6B6" d="M48.906 55.323c2.568 0 4.65-.918 4.65-2.05 0-1.133-2.082-2.05-4.65-2.05-2.567 0-4.649.917-4.649 2.05 0 1.132 2.082 2.05 4.65 2.05Z"/><path fill="#F9A826" d="m34.019 28.267 2.655-14.114s7.385-1.034 7.644 1.42c.26 2.455-.185 14.45-.185 14.45L34.02 28.267Z"/><path fill="#2F2E41" d="M50.622 12.764s3.642-1.296 5.178-1.993c1.536-.698 4.588 4.166 4.656 1.597.068-2.568-.987-3.645-.987-3.645s-.263-5.62-5.94-4.917c0 0 1.248-2.811-2.851-3.246-4.1-.435-10.477 9.436-9.906 10.91.571 1.476 1.256 2.695-.364 4.273-1.62 1.577-4.655 10.478-2.346 12.874 2.308 2.395 2.46 3.434.878 4.925-1.582 1.49-5.32 4.73-1.278 5.293 4.042.562-.37.142 2.644-2.501 3.013-2.644 7.411-2.536 5.77-6.777-1.643-4.24 1.21-10.318.853-11.24-.357-.922.8-6.776.8-6.776s2.692-.395 2.893 1.223Z"/><path fill="#A0616A" d="M80.68 19.852c3.54 0 6.409-2.861 6.409-6.39 0-3.53-2.87-6.39-6.409-6.39-3.539 0-6.408 2.86-6.408 6.39 0 3.529 2.87 6.39 6.408 6.39Z"/><path fill="#2F2E41" d="M81.192 4.87c-.186.109-.434-.055-.493-.26-.06-.206.01-.424.078-.627l.346-1.021c.245-.725.505-1.474 1.036-2.026.802-.832 2.076-1.043 3.223-.89 1.472.197 2.926.992 3.61 2.307.685 1.315.394 3.15-.844 3.97 1.764 2.016 2.378 4.262 2.281 6.935-.097 2.673-3.018 5.133-4.923 7.015-.425-.257-.812-1.462-.578-1.9.234-.437-.102-.945.188-1.348.29-.403.532.24.24-.162-.185-.253.536-.835.261-.986-1.329-.733-1.77-2.385-2.605-3.65a6.237 6.237 0 0 0-4.553-2.73c-1.005-.094-2.066.077-2.889.659-.823.581-1.356 1.62-1.165 2.608a2.35 2.35 0 0 1-.648-1.93 2.353 2.353 0 0 1 1.13-1.696 3.776 3.776 0 0 1 .806-3.567c.86-.944 4.342-.783 5.596-.534l-.097-.166Z"/><path fill="#2F2E41" d="M81.386 9.535c1.66.178 2.86 1.612 3.872 2.937.583.763 1.195 1.606 1.18 2.566-.015.97-.666 1.802-.977 2.721-.508 1.503-.012 3.291 1.197 4.321-1.195.227-2.487-.667-2.694-1.863-.24-1.392.818-2.735.693-4.142-.11-1.24-1.09-2.193-1.923-3.12-.832-.926-1.614-2.156-1.231-3.34l-.117-.08Z"/><path fill="#FFB6B6" d="M106.208 51.882c-1.645.933-2.495 2.535-1.9 3.578.596 1.044 2.411 1.133 4.056.2a4.734 4.734 0 0 0 1.649-1.507l6.918-4.04-1.971-3.196-6.61 4.322c-.756.04-1.49.261-2.142.643Z"/><path fill="#F9A826" d="M129.63 22.26c-.206-.082-2.02-.767-3.676.137-1.903 1.039-2.196 3.41-2.3 4.242-.238 1.922.464 2.352.612 4.297.277 3.64 1.007-.512-.159 1.15-.404.574-4.527 9.485-6.801 11.23-4.423 3.394-7.232 5.785-7.232 5.785l3.207 3.473s5.066-1.347 9.544-4.246c4.594-2.974 6.89-4.461 8.667-7.37.153-.25 3.815-6.45 1.848-13.306-.448-1.564-1.27-4.428-3.71-5.393Z"/><path fill="#3F3D56" d="M146.186 39.572 145.9 52.91a2.378 2.378 0 0 1-2.381 2.323h-24.605a2.378 2.378 0 0 1-2.378-2.244l-.731-13.338a2.377 2.377 0 0 1 2.378-2.504h25.623a2.377 2.377 0 0 1 2.38 2.425Z"/></g><defs><clipPath id="a"><path fill="#fff" d="M0 0h155v79H0z"/></clipPath></defs></svg>