<svg xmlns="http://www.w3.org/2000/svg" width="117" height="78" fill="none"><g clip-path="url(#a)"><path fill="#F2F2F2" d="M71.907 26.029c2.79 0 5.053-2.27 5.053-5.07 0-2.798-2.262-5.068-5.052-5.068-2.79 0-5.053 2.27-5.053 5.069 0 2.8 2.262 5.069 5.052 5.069ZM41.876 15.892a4.217 4.217 0 0 0 4.21-4.224 4.217 4.217 0 0 0-4.21-4.224 4.217 4.217 0 0 0-4.21 4.224 4.217 4.217 0 0 0 4.21 4.224ZM28.123 55.877a4.217 4.217 0 0 0 4.21-4.224 4.217 4.217 0 0 0-4.21-4.224 4.217 4.217 0 0 0-4.21 4.224 4.217 4.217 0 0 0 4.21 4.224Z"/><path fill="#E6E6E6" d="M23.844 58.13c1.22 1.45 2.539 11.905 3.946 13.169l66.039.14c1.407-1.264 2.727-11.718 3.946-13.169l-73.93-.14Z"/><path fill="#3F3D56" d="M44.43 45.849v14.44h10.083v-14.44a.485.485 0 0 0-.486-.487h-9.11a.487.487 0 0 0-.487.486v.001Zm3.935 4.962a1.078 1.078 0 0 1 1.086-1.07 1.078 1.078 0 0 1 1.066 1.07v1.675a1.078 1.078 0 0 1-1.081 1.075 1.078 1.078 0 0 1-1.071-1.075v-1.675Z"/><path fill="#3F3D56" d="M28.568 24.094v26.365c0 .7.565 1.266 1.263 1.267h38.942c.698 0 1.263-.568 1.264-1.267V24.094a1.267 1.267 0 0 0-1.264-1.266H29.831c-.697 0-1.262.567-1.263 1.266Z"/><path fill="#F9A826" d="M29.481 24.422v25.711c0 .374.303.677.675.678H68.45a.677.677 0 0 0 .675-.678V24.421a.678.678 0 0 0-.675-.678H30.156a.678.678 0 0 0-.675.679Z"/><path fill="#3F3D56" d="M37.29 61.82c.078.1.198.158.325.157h22.782a.42.42 0 0 0 .41-.507l-.354-1.685a.421.421 0 0 0-.41-.334H37.967a.421.421 0 0 0-.41.334l-.353 1.685a.42.42 0 0 0 .085.35ZM31.387 27.285h35.831a.143.143 0 0 0 0-.286h-35.83a.143.143 0 0 0 0 .286Z"/><path fill="#CCC" d="m111.698 55.219-.007-.018a3.716 3.716 0 0 0-.189-.428c-.409-.77.024-1.953-.437-3.26-.744-2.117-1.65-3.366-2.979-4.485l-.119-.1-.002-.002c-.887-.73-1.956-1.413-3.284-2.264-.276-.177-1.232.335-1.209-.543.025-.976.052-1.987-.425-2.617l-.031-.041-.049-.013a21.05 21.05 0 0 0-4.971-.384h-.001c-.708.026-1.41.13-2.096.308-.05.014-.1.028-.15.045-.038.01-.076.023-.114.035l-.03.011-.024.023c-.462.463-.569 1.294-.62 2.16v.001l-.024.473c-.04.842-2.065 1.522-2.837 1.904-1.45.718-1.23 2.39-1.247 2.39 0 0-2.438 5.021-2.467 10.105l-.006.853c-.017 2.369-.062 4.778-.238 6.973a36.342 36.342 0 0 1-.31 2.689c-.649 4.107-3.586.697-4.99 3.43.045.268.123.53.23.78.162.097.328.19.492.282a34.273 34.273 0 0 0 6.627 2.833 32.679 32.679 0 0 0 8.694 1.42 40.372 40.372 0 0 0 9.239-1.335l.126-.034a40.21 40.21 0 0 0 5.685-1.996 1.423 1.423 0 0 0 .027.243l.007-.067.022-.202c.859-8.402-.925-15.537-2.293-19.169Z"/><path fill="#FFB6B6" d="M99.275 40.334c4.501 0 8.149-3.66 8.149-8.176s-3.648-8.176-8.149-8.176c-4.5 0-8.15 3.66-8.15 8.176 0 4.515 3.65 8.176 8.15 8.176Z"/><path fill="#2F2E41" d="M99.879 40.481a22.11 22.11 0 0 0 3.65-.983c1.165-.484 3.492-3.01 4.015-4.359.389-1.002.478-2.465.484-3.516a9.954 9.954 0 0 0-3.205-7.414c-.4-.399-.9-.682-1.447-.82a1.566 1.566 0 0 0-.145-.02 3.85 3.85 0 0 1-2.113-.801 3.16 3.16 0 0 0-.377-.263 4.742 4.742 0 0 0-2.138-.6c-1.219-.085-2.835.551-4.803 1.892-.99.673-2.202.736-3.148.716a.303.303 0 0 0-.26.15c-.316.44-.786.743-1.315.85-.322.077-.574.594-.872 1.262a6.95 6.95 0 0 1-.206.439l-.046-.18-.144.239a2.605 2.605 0 0 0 .875 3.57c.329.2.698.325 1.081.363.343.024.688.012 1.029-.035a7.76 7.76 0 0 1 .632-.048c1.374.013 2.64.75 3.335 1.94a1.02 1.02 0 0 0 1.609.193 1.686 1.686 0 0 1 1.456-.571c.245.08.454.241.594.458.165.24.397.424.668.53.904.265 1.327 2.138 1.336 3.766.01 1.57-.34 2.775-.85 2.93-.394.12-.434.158-.45.235l-.013.069.057.05c.237.038.48.023.71-.042Z"/><path fill="#3F3D56" d="M71.036 65.759c1.56 0 2.825-.405 2.825-.905s-1.265-.904-2.825-.904c-1.56 0-2.825.404-2.825.904s1.265.905 2.825.905Z"/><path fill="#3F3D56" d="M71.036 65.156c1.56 0 2.825-.405 2.825-.905s-1.265-.905-2.825-.905c-1.56 0-2.825.406-2.825.905 0 .5 1.265.905 2.825.905Z"/><path fill="#3F3D56" d="m70.54 64.857.42-.006-.116-7.887a7.363 7.363 0 0 1 3.56-6.406l8.036-4.819-.216-.362-8.036 4.818a7.786 7.786 0 0 0-3.765 6.775l.116 7.887Z"/><path fill="#F9A826" d="M82.231 49.295c-.564 0-1.022-.46-1.022-1.026v-6.392c0-.567.458-1.026 1.022-1.026.565 0 1.022.46 1.022 1.026v6.392c0 .567-.457 1.026-1.022 1.026Z"/><path fill="#FFB6B6" d="M68.867 54.143a2.43 2.43 0 0 0 3.388 1.56l6.06 6.178.938-4.405-5.898-5.192a2.44 2.44 0 0 0-3.327-.944 2.456 2.456 0 0 0-1.16 2.803Z"/><path fill="#CCC" d="m100.522 47.692-.039-.022-4.419-1.524a4.171 4.171 0 0 0-4.098.796h-.001a4.198 4.198 0 0 0-1.359 2.31l-2.32 11.055-4.667-2.523-1.901-.456-1.731-1.743-4.323-1.765-.24.287-2.174 2.608-.171.205 4.789 6.951 2.146.235.602 1.073.042.02 1.76.795 7.505 3.393 3.635-2.791.568-.438c4.702-4.37 6.9-7.887 7.818-10.564.486-1.415.614-2.594.566-3.544-.15-2.936-1.914-4.302-1.988-4.358Z"/><path fill="#3F3D56" d="M104.676 50.386h-2.105c-6.085 0-11.017 4.948-11.017 11.052-1.963 2.437-1.843 5.496 0 9.07l-6.034-2.523a1.682 1.682 0 0 0-2.2.914c-.355.86.05 1.845.905 2.204l7.33 3.066v.571a3.236 3.236 0 0 0 3.23 3.242h17.676a3.237 3.237 0 0 0 3.231-3.242c1.31-4.823 2.13-9.5 0-13.302 0-6.104-4.932-11.052-11.016-11.052Z"/><path fill="#F2F2F2" d="M54.225 41.094a.562.562 0 1 0-.001-1.125.562.562 0 0 0 .001 1.125ZM56.19 41.094a.562.562 0 1 0-.002-1.125.562.562 0 0 0 .002 1.125ZM58.155 41.094a.562.562 0 1 0-.002-1.125.562.562 0 0 0 .002 1.125Z"/><path fill="#fff" d="m40.088 34.622 4.19.063a.211.211 0 0 0 0-.423l-4.19-.062a.211.211 0 0 0 0 .422ZM45.136 39.042c.496.384 1.293.048 1.431-.545.162-.69-.44-1.341-1.123-1.326-.76.016-1.296.657-1.378 1.378a2.006 2.006 0 0 0 .72 1.743 2.18 2.18 0 0 0 2.001.469c.26-.077.15-.485-.111-.408a1.784 1.784 0 0 1-2.153-1.209c-.132-.498-.007-1.12.456-1.405.416-.257 1.005-.164 1.163.35a.519.519 0 0 1-.793.589.212.212 0 0 0-.288.075.217.217 0 0 0 .075.29ZM49.432 37.136c-.423.475-.802.988-1.131 1.531l-.492-1.304c-.095-.252-.502-.143-.406.112l.627 1.664c-.24.447-.449.91-.623 1.388-.093.256.314.366.406.112.122-.331.26-.655.417-.971l.574 1.524c.095.251.502.142.406-.113l-.719-1.907a9.93 9.93 0 0 1 1.238-1.737c.18-.202-.116-.502-.297-.299Z"/><path fill="#fff" d="m41.956 34.416.294 6.33c.013.271.434.273.421 0l-.294-6.33c-.013-.27-.434-.272-.421 0Z"/><path fill="#F2F2F2" d="M52.34 37.715h-1.06a85.278 85.278 0 0 0-.01-.641c-.005-.272-.427-.273-.421 0l.013.64h-.909a.211.211 0 0 0 0 .423h.917l.006.27c-.006.415.012.83.053 1.244.09.664.538 1.418 1.305 1.353.268-.023.27-.445 0-.422-.692.058-.89-.757-.916-1.29-.02-.385-.027-.77-.033-1.155h1.055a.211.211 0 0 0 0-.422Z"/><path fill="#FFB8B8" d="M11.04 57.386c-.136 0-.272.014-.406.039L8.402 43.252l2.236-13.645a3.435 3.435 0 0 0-2.824-3.948 3.425 3.425 0 0 0-3.826 2.366 27.194 27.194 0 0 0-1.229 8.314l.078 9.305 5.95 14.291a2.272 2.272 0 0 0 2.524 1.991 2.276 2.276 0 0 0 1.985-2.532 2.273 2.273 0 0 0-2.256-2.008Z"/><path fill="#E6E6E6" d="M6.953 24.753c-2.973.005-5.382 2.422-5.387 5.405l1.095 11.095.098.994.05.002 3.844.192h.002l1.865.093.32.015.366-1.296 3.135-11.095c-.003-2.984-2.413-5.402-5.388-5.405Z"/><path fill="#2F2E41" d="m7.119 78-1.768-5.443s-3.242-3.307.916-12.087a36.635 36.635 0 0 1 .845-1.669c.3-.535.605-1.088.949-1.66l.314.057.298.052 1.017.18h.001l14.734 2.605s-.27 1.213-.417 2.516c-.116 1.068-.154 2.15.12 2.607.596 1.022-.208 3.785-.208 3.785s.045.267.12.74v.002c.075.46.179 1.113.297 1.905.005.053.012.107.02.16a154.03 154.03 0 0 1 .787 6.25H7.119Z"/><path fill="#E6E6E6" d="M2.92 27.623a3.187 3.187 0 0 1 2.293-2.027 7.125 7.125 0 0 1 2.377-.26c2.347.092 1.755-5.182 4.079-4.84 0 0 2.186-.784 3.897.651 1.555 1.304 2.626 4.849 3.025 4.647.085-.042.289-.038.574 0 3.329.444 5.725 3.44 5.527 6.803l-.17 2.876s1.196 1.805-.539 4.992l-2.185 9.799s5.468 10.864 2.947 13.093c-2.52 2.23-12.403-1.246-12.403-1.246S6.8 60.392 5.63 59.647c-2.47-1.573.686-5.162 2.637-4.992a1.143 1.143 0 0 0-.357-1.141c-.54-.346.065-1.128.11-1.2-.051.053-.46.483-.773-.423-.311-.906.65-2.047.65-2.047l-2.715-5.866-2.138-4.634-.26-.534.446-2.884-.042-.086a9.26 9.26 0 0 1-.592-6.379c.206-.782.354-1.496.322-1.838Z"/><path fill="#2F2E41" d="M25.144 78h-.938c.26-.559.517-1.101.76-1.612.063.528.121 1.067.178 1.612Z"/><path fill="#FFB8B8" d="M43.544 45.202a2.285 2.285 0 0 0-.218.346L30.79 38.641l-9.385-10.126a3.417 3.417 0 0 0-4.84-.177 3.445 3.445 0 0 0-.478 4.482 27.071 27.071 0 0 0 5.8 6.066l7.381 5.635 14.905 4.03a2.267 2.267 0 0 0 3.115-.784 2.282 2.282 0 0 0-.78-3.125 2.266 2.266 0 0 0-2.964.56Z"/><path fill="#E6E6E6" d="m26.576 42.465 3.721-4.355.207-.244-7.622-10.364a5.26 5.26 0 0 0-1.07-.646v-.001a5.38 5.38 0 0 0-7.133 2.683 5.415 5.415 0 0 0 1.606 6.51l2.225 1.4 8.032 5.055.034-.038Z"/><path fill="#FFB6B6" d="M19.896 15.756c-1.9 3.486-6.256 4.766-9.73 2.86C6.69 16.71 5.413 12.34 7.313 8.853c1.9-3.486 6.257-4.766 9.732-2.86a7.186 7.186 0 0 1 3.307 3.885 7.205 7.205 0 0 1-.457 5.878Z"/><path fill="#2F2E41" d="M20.927 9.878c-.308-.866-.174-.415-.486-1.278.204.764-.118 1.192-.088 1.278h-8.538v-4.98c2.501-.994 4.947-1.84 6.424 0 2.74 0 4.963 2.23 4.963 4.98h-2.275Z"/><path fill="#2F2E41" d="M17.9 23.719a4.086 4.086 0 0 0-.029-.28 9.72 9.72 0 0 0-.554-1.976c-.247-.695-.496-1.393-.746-2.088a5.996 5.996 0 0 1-.279 3.794c-1.44-1.126-.531-3.701-2.415-3.701-4.53 0-9.191-3.685-9.191-8.233 0-4.545 1.943-7.943 6.473-7.943 4.533 0 8.21 2.08 8.298 6.625-5.58 1.318-.503 13.341-1.556 13.802Z"/><path fill="#2F2E41" d="M5.252 10.538c2.9 0 5.252-2.359 5.252-5.269S8.152 0 5.252 0 0 2.359 0 5.27c0 2.91 2.351 5.268 5.252 5.268Z"/><path fill="#3F3D56" d="M32.94 26.036c.35 0 .634-.291.634-.65 0-.36-.284-.65-.634-.65a.642.642 0 0 0-.634.65c0 .359.284.65.634.65ZM35.13 26.036c.35 0 .634-.291.634-.65 0-.36-.284-.65-.634-.65a.642.642 0 0 0-.634.65c0 .359.284.65.634.65ZM37.32 26.036c.35 0 .634-.291.634-.65 0-.36-.284-.65-.634-.65a.642.642 0 0 0-.634.65c0 .359.284.65.634.65ZM39.818 25.9a.075.075 0 0 1-.054-.023l-.428-.439a.075.075 0 0 1 0-.105l.428-.439a.075.075 0 1 1 .107.106l-.376.386.376.386a.075.075 0 0 1-.053.128ZM40.537 25.9a.075.075 0 0 1-.054-.128l.377-.386-.377-.386a.075.075 0 0 1 .001-.107.075.075 0 0 1 .106.002l.428.438a.075.075 0 0 1 0 .105l-.428.44a.075.075 0 0 1-.053.022ZM64.317 24.81h-.796a.164.164 0 0 0-.164.166v.798c0 .091.074.165.164.165h.796c.09 0 .165-.074.165-.165v-.799a.165.165 0 0 0-.165-.164ZM62.367 24.81h-.795a.164.164 0 0 0-.164.166v.798c0 .091.073.165.164.165h.795c.091 0 .165-.074.165-.165v-.799a.165.165 0 0 0-.165-.164ZM66.154 24.848h-.796a.164.164 0 0 0-.164.165v.799c0 .091.073.165.164.165h.796c.09 0 .165-.074.165-.165v-.799a.165.165 0 0 0-.165-.165ZM52.937 25.152h-7.006a.2.2 0 0 0 0 .402h7.006a.2.2 0 0 0 0-.402Z"/></g><defs><clipPath id="a"><path fill="#fff" d="M0 0h117v78H0z"/></clipPath></defs></svg>