<svg xmlns="http://www.w3.org/2000/svg" width="86" height="86" fill="none"><g clip-path="url(#a)"><path fill="#F2F2F2" d="M86 43a42.931 42.931 0 0 1-2.537 14.587 43.051 43.051 0 0 1-9.623 15.377 42.89 42.89 0 0 1-3.085 2.879 42.776 42.776 0 0 1-21.09 9.643h-.001A43.805 43.805 0 0 1 43 86a42.864 42.864 0 0 1-31.606-13.845 43.62 43.62 0 0 1-2.993-3.62 42.837 42.837 0 0 1-6.607-13.207l-.09-.302A43.048 43.048 0 0 1 0 43C0 19.252 19.253 0 43 0c23.749 0 43 19.252 43 43Z"/><path fill="#A0616A" d="M18.237 25.702a2.803 2.803 0 0 0 2.802 3.258l6.864 19.972 4.38-3.01-8.455-20.003a2.817 2.817 0 0 0-5.591-.217Z"/><path fill="#F9A826" d="M54.062 32.46c-3.048 3.468-10.564 9.58-16.756 13.788a73.738 73.738 0 0 1-3.772 2.414c-.78.464-1.507.864-2.161 1.191a3.562 3.562 0 0 1-4.887-1.845L22.2 37.636l1.483-.983 3.658-2.426.83-.55 3.43 8.169 3.617-2.903 2.246-1.803 10.236-8.214.883-.262 2.06 2.01 1.456 1.422 1.37.238c.205.035.403.077.594.126Z"/><path fill="#fff" d="M81.41 60.959c.212.27.433.538.653.807a42.65 42.65 0 0 1-2.552 4.52l-.21-.15a.268.268 0 0 1-.032-.02c-.261-.186-.523-.369-.784-.555a8.904 8.904 0 0 1-.357-2.253.672.672 0 0 0 .156-1.254l-.093-.164.005-.047c.2-1.59 2.225-2.144 3.214-.884ZM83.694 55.514c.152.42.291.844.417 1.273a46.53 46.53 0 0 1-.266.76 20.597 20.597 0 0 0-.851-2.589 21.157 21.157 0 0 0-.786-1.722 21.672 21.672 0 0 0-6.61-7.696 5.768 5.768 0 0 1-2.981-1.754 4.431 4.431 0 0 1-.709-1.05c.117-.017.234-.04.349-.064l.108-.024.014-.003a.667.667 0 0 0 .235-1.193l-.196-.139c-.1-.072-.2-.14-.3-.212a.325.325 0 0 1-.03-.022c-.115-.081-.23-.16-.343-.243.088-.283.24-.543.444-.758.711-.734 1.98-.717 2.81-.12.831.598 1.248 1.645 1.302 2.666.047.874-.141 1.739-.39 2.582.063.046.128.09.19.136a21.805 21.805 0 0 1 3.163 2.864c-.554-1.313-.755-3.025-.61-4.205.163-1.343.816-2.619 1.35-3.89.64-1.526 2.823-1.547 3.439-.01l.018.044c-.103.104-.203.21-.298.321a.913.913 0 0 0 .8 1.501l.02-.002c.079.453.124.912.134 1.372a9.353 9.353 0 0 1-3.094 7.064 21.72 21.72 0 0 1 1.584 2.63c.413.804.776 1.633 1.087 2.483Z"/><path fill="#F9A826" d="m59.18 43.579-.384 26.386-31.036-.89 4.956-10.941c-.035-.351 2.176-2.816 2.163-3.18-.038-1.07.76-2.062.89-3.181.265-2.31-1.25-11.029-.552-12.83.298-.805.68-1.575 1.138-2.3.397-.6.804-1.005 1.193-1.152l1.148-2.674 1.017-1.526 7.986-2.365.883-.262 2.06 2.01 1.456 1.422 1.37.238c.205.035.403.077.594.126a6.036 6.036 0 0 1 2.502 1.239c2.391 2.032 2.67 5.853 2.616 9.88Z"/><path fill="#CCC" d="M77.004 69.767a42.716 42.716 0 0 1-2.782 3.158l-3.356.002-18.048.02-3.25.004-2.16.003-3.213.003-2.472.002-4.566.005-2.693.004-5.672.005-2.707.004-7.502.007-4.712.006h-1.265a43.6 43.6 0 0 1-2.791-3.154l2.618-.001 1.784-.002 4.13-.005 7.968-.008 2.694-.002 1.088-.001h.004l.855-.002h.383l.981-.002h.415l2.908-.003 6.273-.007 2.76-.003 2.644-.002 2.479-.003 3.555-.004 18.992-.019 4.658-.005Z"/><path fill="#2F2E41" d="m34.065 30.147-.007.001a1.39 1.39 0 0 1-1.513-1.255l-.723-7.722c-.131-1.383.018-2.779.437-4.104a10.532 10.532 0 0 1 4.99-6.054 10.371 10.371 0 0 1 3.976-1.216c5.702-.543 7.786.644 11.308 9.34 3.522 8.697.725 7.734.725 7.734a1.415 1.415 0 0 1-1.263 1.528c-6.741 1.713-13.543 3.517-17.931 1.749Z"/><path fill="#9E616A" d="M46.611 17.113a7.644 7.644 0 0 1-7.774 11.79 7.555 7.555 0 0 1-4.865-3.202 7.645 7.645 0 0 1 7.769-11.786 7.557 7.557 0 0 1 4.87 3.199Z"/><path fill="#2F2E41" d="M29.432 22.029a8.2 8.2 0 0 1 .345-3.246c.077-2.563.82-4.885 3.947-4.787a8.204 8.204 0 0 1 3.123-.959l1.545-.152.052-.005a8.185 8.185 0 0 1 8.909 7.392l.014.154-3.268.32-1.407-3.01.07 3.141-1.688.166-.71-1.519.035 1.584c-2.507 2.207-6.307 2.323-10.951 1.076l-.016-.155Z"/><path fill="#2F2E41" d="M39.886 29.357a1.402 1.402 0 0 0 .591 1.29 1.387 1.387 0 0 0 1.172.196l1.141-.32 1.279-3.564.293 3.127 5.187-1.444-1.244-13.273-8.84.871.242.234a6.111 6.111 0 0 1 1.658 2.864 9.961 9.961 0 0 1 .252 3.38 17.956 17.956 0 0 1-.633 3.382c-.278.978-.611 1.94-1 2.88-.05.12-.083.247-.098.377Z"/><path fill="#3F3D56" d="M41.065 71.206c-.152 0-.302-.035-.44-.1l-24.491.625a1.029 1.029 0 0 1 .146-1.914l16.023-4.778c.166-.05.342-.056.511-.02L57.6 68.042a1.027 1.027 0 0 1 .118 1.976L41.4 71.15a1.027 1.027 0 0 1-.336.057Z"/><path fill="#2F2E41" d="M41.966 69.5a.646.646 0 0 1-.316-.082l-19.891.93a.646.646 0 0 1 .163-1.19l7.201-1.747a.648.648 0 0 1 .34.01l18.493-.022a.645.645 0 0 1 .004 1.231l-5.802.841a.647.647 0 0 1-.192.03Z"/><path fill="#A0616A" d="M39.872 68.44a2.8 2.8 0 0 0 4.104-1.273L65.03 68.82l-1.018-5.216-21.716-.206a2.817 2.817 0 0 0-2.424 5.042Z"/><path fill="#F9A826" d="M52.308 34.471s3.18-2.544 6.997 2.036c2.574 3.088 7.539 21.76 7.95 29.497a3.558 3.558 0 0 1-3.636 3.748l-11.222-.195-1.255-7.055 8.86.105-7.694-28.136Z"/><path fill="#3F3D56" d="M39.703 71.208c-.385 0-.766-.077-1.12-.227L15.88 71.5a2.885 2.885 0 0 1-1.737-3.127l-.843-19.937a2.88 2.88 0 0 1 3.045-2.426l21.075.874a2.893 2.893 0 0 1 2.662 3.377l2.47 18.544a2.897 2.897 0 0 1-2.85 2.404Z"/><path fill="#E6E6E6" d="m22.465 11.853-9.474-.027a.96.96 0 0 0-.96.956l-.035 12.545a.957.957 0 0 0 .954.959l5.256.015 4.22.012a.957.957 0 0 0 .959-.956l.002-.741.033-11.803a.959.959 0 0 0-.955-.96Z"/><path fill="#fff" d="m21.797 12.602-8.142-.023a.898.898 0 0 0-.9.895l-.022 8.065a4 4 0 0 0 3.984 4.006l1.547.004 3.498.01a.898.898 0 0 0 .899-.894l.002-.811.029-10.352a.898.898 0 0 0-.895-.9Z"/><path fill="#F9A826" d="M20.882 18.113h-6.348a.382.382 0 0 0-.352.527.384.384 0 0 0 .352.236h6.348a.381.381 0 0 0 0-.763ZM15.93 16.024h-1.396a.381.381 0 0 0 0 .762h1.396a.381.381 0 0 0 0-.762ZM20.882 21.463h-6.348a.381.381 0 0 0 0 .762h6.348a.381.381 0 0 0 0-.762ZM20.882 19.789h-6.348a.38.38 0 0 0 0 .76h6.348a.38.38 0 0 0 0-.76ZM19.649 17.372a2.254 2.254 0 1 1 0-4.508 2.254 2.254 0 0 1 0 4.508Zm0-4.351a2.097 2.097 0 1 0 0 4.193 2.097 2.097 0 0 0 0-4.193Z"/><path fill="#F9A826" d="M20.595 15.991a5.793 5.793 0 0 0-.951-2.235.119.119 0 0 0-.203 0 6.188 6.188 0 0 0-.772 2.333c-.018.15.217.148.235 0 .033-.266.085-.53.154-.789a.133.133 0 0 0 .026-.008 1.713 1.713 0 0 1 1.012-.165h.009c.114.301.202.61.264.926.029.149.255.086.226-.062Zm-1.452-.979c.108-.335.245-.659.41-.97.175.268.327.55.454.842a1.981 1.981 0 0 0-.864.128Z"/></g><defs><clipPath id="a"><path fill="#fff" d="M0 0h86v86H0z"/></clipPath></defs></svg>