<svg xmlns="http://www.w3.org/2000/svg" width="358" height="358" fill="none"><circle cx="179" cy="179" r="179" fill="#FFFCEF"/><circle cx="179" cy="179" r="144" fill="#FEDE82"/><circle cx="179" cy="179" r="106" fill="#F7C700"/><path fill="#FF74D4" d="m287 59.742 8.297 9.829 12.446-2.452-8.297-9.829L287 59.742Z"/><path fill="#FF9EE1" d="m303.595 45 8.287 9.828-4.139 12.29-8.297-9.828L303.595 45Z"/><path fill="#FFC7EE" d="M299.446 57.29 303.595 45l-12.446 2.452L287 59.742l12.446-2.452Z"/><path fill="#FF74D4" d="m53.038 75.249 13.186-6.33 9.037-13.706-13.186 6.33-9.037 13.706Z"/><path fill="#FF90DD" d="M53.038 75.249 47 46l15.075 15.543-9.037 13.706Z"/><path fill="#FFC7EE" d="m47 46 28.26 9.213-13.185 6.33L47 46Z"/><path fill="#FF74D4" d="m275 302.265 6.328 7.505 9.504-1.88-6.336-7.505-9.496 1.88Z"/><path fill="#FF9EE1" d="m287.664 291 6.336 7.505-3.168 9.385-6.336-7.505 3.168-9.385Z"/><path fill="#FFC7EE" d="m284.496 300.385 3.168-9.385-9.504 1.88-3.16 9.385 9.496-1.88Z"/><g clip-path="url(#a)"><path fill="#80ED99" d="m78.7 263-10.097 3.49L61 275.46l10.096-3.491L78.7 263Z"/><path fill="#99F1AD" d="m78.7 263 2.3 21-9.904-12.031L78.7 263Z"/><path fill="#CCF8D6" d="m81 284-20-8.54 10.096-3.491L81 284Z"/></g><path fill="#fff" stroke="#fff" stroke-width="2" d="M213.995 134.634c0-6.967-5.65-12.634-12.597-12.634-6.946 0-12.597 5.667-12.597 12.634v28.243a35.37 35.37 0 0 0-10.306-1.525c-3.515 0-6.973.513-10.306 1.525v-28.243c.003-6.967-5.648-12.634-12.592-12.634-6.944 0-12.597 5.667-12.597 12.634v27.413c0 6.253 1.64 12.236 4.568 17.454A35.624 35.624 0 0 0 143 196.953v27.413c0 6.967 5.651 12.634 12.597 12.634s12.597-5.667 12.597-12.634v-28.243a35.376 35.376 0 0 0 10.306 1.525c3.516 0 6.974-.513 10.306-1.525v28.243c0 6.967 5.651 12.634 12.597 12.634S214 231.333 214 224.366v-27.413c0-6.253-1.64-12.236-4.568-17.454A35.642 35.642 0 0 0 214 162.044v-27.41h-.005Zm-48.094 89.73c0 5.699-4.624 10.336-10.306 10.336-5.683 0-10.306-4.637-10.306-10.336v-27.413c0-5.4 1.309-10.582 3.664-15.187 4.023 6.063 9.88 10.884 16.948 13.575v29.025Zm0-31.493c-6.626-2.723-12.054-7.473-15.675-13.372a33.232 33.232 0 0 1 15.675-13.372v26.746-.002Zm0-29.214c-7.066 2.688-12.925 7.509-16.948 13.574a33.316 33.316 0 0 1-3.664-15.187v-27.41c.002-5.7 4.625-10.336 10.308-10.336s10.306 4.636 10.306 10.336v29.025l-.002-.002Zm22.9 30.056a33.082 33.082 0 0 1-10.306 1.635c-3.524 0-6.987-.55-10.306-1.635v-28.432a33.063 33.063 0 0 1 10.306-1.636c3.525 0 6.988.55 10.306 1.636v28.432Zm2.291-27.588c6.626 2.723 12.054 7.472 15.675 13.372a33.236 33.236 0 0 1-15.675 13.371v-26.746.003Zm20.612 30.826v27.413c0 5.699-4.623 10.336-10.306 10.336-5.682 0-10.306-4.637-10.306-10.336v-29.025c7.066-2.689 12.925-7.51 16.948-13.572a33.315 33.315 0 0 1 3.664 15.186v-.002Zm0-34.907a33.316 33.316 0 0 1-3.664 15.187c-4.023-6.063-9.88-10.883-16.948-13.572v-29.025c0-5.7 4.624-10.336 10.306-10.336 5.683 0 10.306 4.636 10.306 10.336v27.413-.003Z"/><defs><clipPath id="a"><path fill="#fff" d="M61 263h20v21H61z"/></clipPath></defs></svg>