<svg xmlns="http://www.w3.org/2000/svg" width="77" height="63" fill="none"><g clip-path="url(#a)"><path fill="#F0F0F0" d="M62.665 6.332c.492-1.996.024-4.325-1.565-5.638a9.442 9.442 0 0 1-2.328 6.076c-.57.649-1.273 1.311-1.3 2.173-.018.536.245 1.051.608 1.448.362.397.82.694 1.272.987l.066.116c1.455-1.46 2.755-3.166 3.247-5.162Z"/><path fill="#fff" d="M61.068.723c.61 1.59.7 3.33.259 4.974a3.474 3.474 0 0 1-.428 1.006c-.2.296-.476.534-.8.689-.298.15-.62.27-.877.49a1.224 1.224 0 0 0-.414.912c-.013.43.13.838.285 1.233.172.439.357.891.317 1.371-.005.058.086.062.09.004.07-.835-.5-1.54-.59-2.35-.043-.378.03-.77.31-1.046.246-.241.579-.364.882-.514.318-.146.595-.368.807-.645.21-.3.367-.633.465-.986.233-.79.34-1.611.316-2.434a8.2 8.2 0 0 0-.541-2.746c-.021-.054-.102-.011-.081.042Z"/><path fill="#fff" d="M61.5 5.176a1.226 1.226 0 0 0 1.324-.86c.017-.055-.07-.084-.087-.028a1.135 1.135 0 0 1-1.233.797c-.058-.007-.061.083-.004.09ZM60.261 7.336a2.332 2.332 0 0 1-.499-1.632c.005-.058-.086-.063-.09-.004-.047.61.14 1.217.522 1.697.037.045.104-.016.067-.061ZM61.559 2.538a.694.694 0 0 1-.6-.263c-.037-.046-.104.015-.068.061a.773.773 0 0 0 .663.293.047.047 0 0 0 .048-.044.045.045 0 0 0-.043-.047Z"/><path fill="#F0F0F0" d="m54.226 1.987.065.089a9.055 9.055 0 0 1 .815 1.359 9.504 9.504 0 0 1 .93 3.39c.039.468.041.938.007 1.407-.046.648-.148 1.346.018 1.953.016.064.037.126.061.187l3.148 1.194.025-.002.124.053.01-.073.005-.042.004-.027v-.009l.004-.024c.018-.14.034-.28.05-.42v-.002c.128-1.07.128-2.152 0-3.222-.004-.032-.008-.064-.014-.097a8.811 8.811 0 0 0-.314-1.409c-.08-.252-.172-.5-.276-.742a6.495 6.495 0 0 0-1.092-1.718c-.902-1.021-2.122-1.744-3.467-1.839a4.873 4.873 0 0 0-.103-.006Z"/><path fill="#fff" d="M54.218 2.03a8.105 8.105 0 0 1 3.217 3.815c.144.337.234.694.267 1.06a1.99 1.99 0 0 1-.221 1.028c-.148.3-.333.588-.405.917a1.218 1.218 0 0 0 .221.977c.25.35.613.59.975.813.402.248.824.498 1.083.905.03.05.106-.002.075-.051-.45-.708-1.333-.93-1.895-1.522-.262-.277-.442-.634-.385-1.022.05-.34.242-.637.394-.938.165-.308.252-.65.253-.999a3.209 3.209 0 0 0-.225-1.065 7.843 7.843 0 0 0-1.221-2.133 8.267 8.267 0 0 0-2.094-1.868c-.05-.03-.088.051-.039.082Z"/><path fill="#fff" d="M57.258 5.325a1.216 1.216 0 0 0 .537-1.479c-.021-.054-.107-.025-.086.03a1.119 1.119 0 0 1-.503 1.374c-.05.03.001.104.052.075ZM57.576 7.792a2.352 2.352 0 0 1-1.386-1.004c-.032-.05-.107.002-.075.05.332.517.848.889 1.444 1.043.057.014.073-.075.017-.09ZM55.708 3.184a.692.692 0 0 1-.638.15c-.057-.016-.073.073-.017.089a.778.778 0 0 0 .706-.164.047.047 0 0 0 .012-.063.046.046 0 0 0-.063-.012Z"/><path fill="#E4E4E4" d="M50.064 47.08c-10.552 0-19.137-8.541-19.137-19.039 0-10.498 8.585-19.039 19.137-19.039 1.116 0 2.23.096 3.329.287a.105.105 0 1 1-.037.208 19.212 19.212 0 0 0-3.292-.284c-10.435 0-18.926 8.446-18.926 18.828s8.49 18.828 18.926 18.828c10.436 0 18.927-8.446 18.927-18.828a18.727 18.727 0 0 0-4.938-12.682.105.105 0 0 1 .084-.176.106.106 0 0 1 .073.034 18.936 18.936 0 0 1 4.992 12.824c0 10.498-8.585 19.039-19.138 19.039Z"/><path fill="#F9A826" d="M58.503 15.532c2.09 0 3.786-1.686 3.786-3.767 0-2.08-1.695-3.767-3.786-3.767-2.092 0-3.787 1.687-3.787 3.767s1.695 3.767 3.787 3.767Z"/><path fill="#fff" d="M57.986 13.726a.422.422 0 0 1-.337-.168l-1.033-1.37a.417.417 0 0 1 .233-.658.426.426 0 0 1 .441.155l.676.896 1.736-2.59a.421.421 0 0 1 .7.465l-2.065 3.083a.421.421 0 0 1-.34.187h-.01Z"/><path fill="#3F3D56" d="m49.572 25.086-5.839-16.16.148-.052-1.074-2.972-.148.053L40.866.993a1.498 1.498 0 0 0-.776-.85A1.514 1.514 0 0 0 38.938.09L28.383 3.864a1.509 1.509 0 0 0-.854.772 1.496 1.496 0 0 0-.055 1.146l1.25 3.46-.234.09.798 2.06.187-.071.166.458-.2.077.799 2.06.152-.058 5.788 16.017a1.493 1.493 0 0 0 .775.85 1.51 1.51 0 0 0 1.153.054l10.555-3.774c.376-.135.683-.413.853-.772.17-.36.19-.772.056-1.147Z"/><path fill="#fff" d="M37.553 30.247a.725.725 0 0 1-.68-.476L28.076 5.423a.715.715 0 0 1 .435-.919l2.246-.803-.003.078a.825.825 0 0 0 .712.855c.135.02.273.005.401-.04l4.985-1.783a.842.842 0 0 0 .474-.593.817.817 0 0 0-.197-.719l-.052-.058 2.32-.83a.727.727 0 0 1 .924.434l8.393 23.23a1.9 1.9 0 0 1-.07 1.457c-.217.457-.607.81-1.085.982l-9.761 3.49a.724.724 0 0 1-.245.043Z"/><path fill="#F9A826" d="M36.693 12.977a2.847 2.847 0 0 0 2.855-2.84 2.847 2.847 0 0 0-2.855-2.84 2.847 2.847 0 0 0-2.855 2.84 2.847 2.847 0 0 0 2.855 2.84Z"/><path fill="#E6E6E6" d="m43.767 14.268-9.886 3.535a.251.251 0 0 1-.335-.246.249.249 0 0 1 .166-.222l9.886-3.535a.25.25 0 0 1 .319.15.247.247 0 0 1-.15.318ZM40.831 16.51l-3.252 1.162a.252.252 0 0 1-.32-.15.248.248 0 0 1 .151-.318l3.252-1.163a.25.25 0 0 1 .32.15.247.247 0 0 1-.151.318ZM41.604 18.65l-3.251 1.162a.25.25 0 0 1-.32-.15.247.247 0 0 1 .15-.317l3.252-1.163a.25.25 0 0 1 .32.15.247.247 0 0 1-.15.318ZM42 19.746 38.75 20.91a.251.251 0 0 1-.32-.15.247.247 0 0 1 .15-.318l3.253-1.162a.252.252 0 0 1 .32.15.245.245 0 0 1-.068.267.25.25 0 0 1-.083.05ZM43.036 16.912l-6.9 2.467a.251.251 0 0 1-.32-.15.247.247 0 0 1 .152-.317l6.9-2.467a.251.251 0 0 1 .334.245.249.249 0 0 1-.166.222Z"/><path fill="#F9A826" d="m41.646 22.408-1.18.422a.427.427 0 0 1-.543-.255.42.42 0 0 1 .255-.54l1.181-.422a.427.427 0 0 1 .543.254.42.42 0 0 1-.256.54Z"/><path fill="#fff" d="M32.342 3.78a.164.164 0 1 0-.164-.163c0 .09.073.163.164.163Z"/><path fill="#F0F0F0" d="M13.458 12.803c1.84-2.155 4.826-3.513 7.58-2.809a13.024 13.024 0 0 0-4.931 7.48c-.268 1.156-.445 2.47-1.388 3.195-.587.45-1.376.574-2.113.492-.737-.082-1.439-.35-2.131-.614l-.184.02c.463-2.79 1.327-5.608 3.167-7.764Z"/><path fill="#fff" d="M21.03 10.053a11.2 11.2 0 0 0-5.782 3.723c-.327.385-.59.819-.782 1.285-.171.46-.215.959-.128 1.442.073.453.2.907.16 1.369a1.678 1.678 0 0 1-.689 1.195c-.472.36-1.045.53-1.612.677-.63.164-1.286.323-1.792.754-.061.052-.139-.045-.078-.098.88-.75 2.13-.685 3.11-1.238.458-.258.84-.655.923-1.188.072-.467-.059-.936-.136-1.393a2.921 2.921 0 0 1 .073-1.415c.166-.474.413-.918.729-1.31a10.835 10.835 0 0 1 2.473-2.313 11.418 11.418 0 0 1 3.514-1.613c.077-.02.095.103.017.123Z"/><path fill="#fff" d="M15.692 13.164a1.667 1.667 0 0 1-.104-2.161c.05-.064.15.01.101.073a1.542 1.542 0 0 0 .101 2.01c.056.058-.043.136-.098.078ZM14.271 16.279a3.247 3.247 0 0 0 2.231-.762c.062-.053.14.045.078.097a3.378 3.378 0 0 1-2.323.788c-.081-.003-.066-.127.014-.123ZM18.601 10.972a.948.948 0 0 0 .779.454c.08.002.066.126-.014.124a1.07 1.07 0 0 1-.863-.5.064.064 0 0 1 .01-.088.063.063 0 0 1 .088.01Z"/><path fill="#F0F0F0" d="M25.13 18.66h-.151a12.588 12.588 0 0 0-2.18.191 13.243 13.243 0 0 0-4.549 1.7c-.555.336-1.085.713-1.583 1.128-.688.574-1.388 1.25-2.203 1.556-.084.033-.17.06-.259.082L10.33 20.79l-.018-.03-.16-.094.074-.07c.014-.013.03-.026.043-.04.01-.009.02-.017.027-.026a.176.176 0 0 1 .01-.008l.024-.023c.142-.132.286-.263.431-.394l.002-.001c1.108-.992 2.309-1.9 3.61-2.599.04-.02.079-.042.12-.062a12.272 12.272 0 0 1 1.832-.787c.346-.115.698-.213 1.054-.292a9.037 9.037 0 0 1 2.806-.175c1.871.177 3.665.947 4.856 2.362l.09.11Z"/><path fill="#fff" d="M25.09 18.703a11.248 11.248 0 0 0-6.87-.491c-.494.111-.967.3-1.402.558a2.755 2.755 0 0 0-.975 1.074c-.216.405-.39.843-.7 1.189a1.692 1.692 0 0 1-1.274.541c-.595.005-1.156-.203-1.697-.425-.602-.246-1.222-.512-1.887-.47-.08.004-.084-.12-.003-.125 1.156-.072 2.116.728 3.233.874.521.068 1.066-.02 1.455-.397.34-.33.52-.782.735-1.193a2.94 2.94 0 0 1 .914-1.086 4.47 4.47 0 0 1 1.375-.61 10.913 10.913 0 0 1 3.375-.365c1.298.056 2.577.332 3.781.817.075.03.014.139-.06.109Z"/><path fill="#fff" d="M18.945 17.989c-.042-.394.058-.79.283-1.118.224-.327.558-.565.942-.67.078-.021.114.098.036.12a1.555 1.555 0 0 0-.877.623c-.208.306-.3.675-.258 1.042.009.08-.117.082-.126.003ZM15.925 19.625c.63.514 1.43.774 2.243.727.08-.004.084.12.003.125a3.378 3.378 0 0 1-2.332-.762c-.062-.051.024-.141.086-.09ZM22.594 17.982a.941.941 0 0 0 .347.828c.063.05-.023.14-.086.09a1.06 1.06 0 0 1-.386-.915.064.064 0 0 1 .061-.064.063.063 0 0 1 .064.06Z"/><path fill="#F0F0F0" d="M68.69 54.224c2.006.49 4.346.025 5.666-1.557a9.548 9.548 0 0 1-6.107-2.316c-.652-.567-1.319-1.266-2.185-1.293-.538-.017-1.056.244-1.455.605-.4.36-.698.816-.992 1.265l-.117.066c1.467 1.447 3.183 2.741 5.19 3.23Z"/><path fill="#fff" d="M74.327 52.636a8.176 8.176 0 0 1-5 .257 3.513 3.513 0 0 1-1.01-.425 2.001 2.001 0 0 1-.693-.795c-.152-.297-.271-.619-.492-.874a1.23 1.23 0 0 0-.918-.412c-.432-.012-.843.13-1.24.284-.44.17-.895.355-1.377.315-.059-.005-.063.086-.005.09.84.07 1.549-.498 2.363-.588.38-.042.775.03 1.052.31.242.244.366.575.516.877.147.316.37.592.648.803.302.209.637.365.991.462.794.232 1.62.338 2.447.314a8.32 8.32 0 0 0 2.76-.538c.055-.021.012-.101-.042-.08Z"/><path fill="#fff" d="M69.851 53.066a1.22 1.22 0 0 0 .864 1.317c.056.016.084-.07.028-.086a1.12 1.12 0 0 1-.801-1.227c.008-.058-.083-.062-.091-.004ZM67.68 51.833a2.361 2.361 0 0 1 1.64-.496c.059.004.063-.086.005-.09a2.456 2.456 0 0 0-1.706.52c-.046.036.015.102.061.066ZM72.503 53.124a.683.683 0 0 1 .264-.597c.046-.036-.015-.103-.061-.067a.77.77 0 0 0-.294.66.047.047 0 0 0 .043.047.046.046 0 0 0 .047-.043Z"/><path fill="#F0F0F0" d="m73.057 45.83-.09.063a9.11 9.11 0 0 1-1.366.811 9.633 9.633 0 0 1-3.407.926c-.47.038-.944.04-1.415.007-.651-.046-1.353-.148-1.963.017a1.605 1.605 0 0 0-.188.062l-1.2 3.13c0 .01 0 .018.002.026l-.054.123.074.01.042.005.027.004h.009l.024.004c.14.018.282.034.423.05h.002c1.075.127 2.163.127 3.238 0 .032-.004.065-.008.098-.014.48-.066.953-.17 1.416-.313.253-.079.502-.17.746-.274a6.54 6.54 0 0 0 1.727-1.087c1.026-.897 1.753-2.11 1.849-3.449l.006-.102Z"/><path fill="#fff" d="M73.014 45.821a8.126 8.126 0 0 1-3.835 3.2 3.52 3.52 0 0 1-1.065.266 2.018 2.018 0 0 1-1.035-.22c-.3-.147-.59-.331-.921-.403a1.237 1.237 0 0 0-.982.22c-.352.25-.594.61-.818.97-.248.4-.5.82-.91 1.077-.049.031.003.106.052.075.712-.448.935-1.326 1.53-1.885.278-.261.637-.44 1.027-.383.341.05.64.24.944.391.308.165.653.251 1.003.253.367-.014.73-.09 1.071-.224.774-.29 1.498-.7 2.144-1.215a8.252 8.252 0 0 0 1.878-2.083c.03-.05-.052-.088-.083-.039Z"/><path fill="#fff" d="M69.701 48.845a1.22 1.22 0 0 0 1.487.534c.055-.02.025-.106-.03-.085a1.136 1.136 0 0 1-1.382-.5c-.029-.05-.104 0-.075.051ZM67.222 49.162c.15-.57.51-1.062 1.01-1.38.049-.03-.003-.105-.052-.074-.519.33-.893.844-1.048 1.437-.014.056.075.073.09.017ZM71.853 47.303a.686.686 0 0 1-.15-.635c.015-.056-.074-.072-.09-.016a.766.766 0 0 0 .165.703c.007.01.018.016.03.018.011.002.023 0 .033-.007a.045.045 0 0 0 .012-.063Z"/><path fill="#3F3D56" d="m76.73 35.037-3.06 5.123.116.06-1.036 1.955-.216-.113-.68 1.139.169.097-1.11 1.912-.193-.11-9.984 16.715a1.941 1.941 0 0 1-2.645.67L39.528 51.514a1.913 1.913 0 0 1-.673-2.632l15.993-26.778a1.94 1.94 0 0 1 2.645-.67l18.562 10.972a1.915 1.915 0 0 1 .674 2.632Z"/><path fill="#fff" d="m58.752 61.452-18.627-11.01a.593.593 0 0 1-.208-.812l16.1-26.956a.595.595 0 0 1 .816-.207l18.627 11.01a.593.593 0 0 1 .208.812l-16.1 26.956a.596.596 0 0 1-.816.207ZM66.403 27.547a.164.164 0 1 0 0-.327.164.164 0 1 0 0 .327Z"/><path fill="#E6E6E6" d="m65.387 46.856-15.549-9.19a.432.432 0 0 1-.207-.43.426.426 0 0 1 .32-.354.432.432 0 0 1 .326.048l15.549 9.191a.429.429 0 0 1 .151.587.428.428 0 0 1-.59.148ZM59.178 45.432l-5.114-3.023a.429.429 0 0 1-.15-.586.428.428 0 0 1 .431-.205.43.43 0 0 1 .158.056l5.115 3.023a.43.43 0 0 1 .15.586.43.43 0 0 1-.59.15ZM57.167 48.799l-5.114-3.023a.428.428 0 1 1 .44-.736l5.114 3.023a.43.43 0 0 1 .15.587.427.427 0 0 1-.431.205.433.433 0 0 1-.159-.056ZM56.138 50.523 51.023 47.5a.43.43 0 0 1-.207-.429.425.425 0 0 1 .32-.354.433.433 0 0 1 .326.048l5.115 3.023a.43.43 0 0 1 .207.43.426.426 0 0 1-.32.353.432.432 0 0 1-.326-.048ZM61.055 48.788l-10.85-6.415a.428.428 0 1 1 .439-.735l10.85 6.414a.429.429 0 0 1 .152.587.428.428 0 0 1-.432.205.432.432 0 0 1-.159-.056Z"/><path fill="#F9A826" d="m58.987 56.985-1.857-1.098a.728.728 0 0 1-.254-.996.73.73 0 0 1 1.001-.255l1.857 1.098a.728.728 0 0 1 .255.997.73.73 0 0 1-1.002.254ZM62.452 39.162c2.102 0 3.806-1.695 3.806-3.787 0-2.091-1.704-3.786-3.806-3.786-2.102 0-3.806 1.695-3.806 3.786 0 2.092 1.704 3.787 3.806 3.787Z"/><path fill="#CACACA" d="M.045 50.763h51.51V21.096a.846.846 0 0 0-.843-.838H.889a.846.846 0 0 0-.596.245.837.837 0 0 0-.247.593v29.667Z"/><path fill="#fff" d="M49.964 21.417H1.636V48.71h48.328V21.418Z"/><path fill="#3F3D56" d="M0 49.96v3.661a1.15 1.15 0 0 0 .717 1.068c.141.058.292.088.445.088h19.012v7.225h-.253a.15.15 0 0 0-.15.15v.503a.149.149 0 0 0 .093.138.152.152 0 0 0 .057.012h11.803a.152.152 0 0 0 .14-.093.149.149 0 0 0 .01-.057v-.503a.15.15 0 0 0-.092-.139.15.15 0 0 0-.058-.011h-.253v-7.225h19.013a1.167 1.167 0 0 0 1.073-.714c.058-.14.088-.29.088-.442v-3.66H0Z"/><path fill="#E6E6E6" d="M42.971 30.545H20.085a.545.545 0 0 1-.544-.54.54.54 0 0 1 .544-.542H42.97a.545.545 0 0 1 .544.541.54.54 0 0 1-.544.541ZM35.292 32.988h-7.528a.545.545 0 0 1-.544-.541.54.54 0 0 1 .544-.541h7.528a.546.546 0 0 1 .544.541.54.54 0 0 1-.544.541ZM35.292 37.944h-7.528a.545.545 0 0 1-.544-.542.54.54 0 0 1 .544-.54h7.528a.546.546 0 0 1 .544.54.54.54 0 0 1-.544.542ZM35.292 40.482h-7.528a.547.547 0 0 1-.503-.334.54.54 0 0 1 .503-.749h7.528a.546.546 0 0 1 .544.542.538.538 0 0 1-.336.5.546.546 0 0 1-.208.04ZM39.514 35.431H23.542a.545.545 0 0 1-.544-.541.54.54 0 0 1 .544-.541h15.972a.545.545 0 0 1 .544.54.54.54 0 0 1-.544.542Z"/><path fill="#F9A826" d="M42.59 45.678h-2.733a.928.928 0 0 1-.654-.27.918.918 0 0 1 .654-1.57h2.733c.245 0 .48.097.654.27a.918.918 0 0 1-.654 1.57ZM12.888 39c2.628 0 4.758-2.12 4.758-4.734s-2.13-4.733-4.758-4.733c-2.627 0-4.758 2.119-4.758 4.733 0 2.614 2.13 4.733 4.758 4.733Z"/><path fill="#CACACA" d="M68.566 63H.126A.126.126 0 0 1 0 62.875a.125.125 0 0 1 .126-.126h68.44a.126.126 0 0 1 .126.126.125.125 0 0 1-.126.125Z"/><path fill="#fff" d="M25.778 20.837a.179.179 0 1 0 0-.357.179.179 0 1 0 0 .357Z"/></g><defs><clipPath id="a"><path fill="#fff" d="M0 0h77v63H0z"/></clipPath></defs></svg>