<svg xmlns="http://www.w3.org/2000/svg" width="90" height="59" fill="none"><g clip-path="url(#a)"><path fill="#FFB6B6" d="M57.162 32.767c.315-.065.592-.25.77-.513a1.193 1.193 0 0 0 .125-1.099l3.272-2.776-2.14-.596-2.779 2.728a1.22 1.22 0 0 0-.627.681c-.11.3-.096.63.039.919.115.243.31.44.553.559.244.12.521.153.787.097Z"/><path fill="#F2F2F2" d="m78.409 52.458.119-2.632a8.745 8.745 0 0 1 4.028-1.004c-1.935 1.557-1.693 4.559-3.005 6.653-.414.65-.971 1.2-1.63 1.609a5.249 5.249 0 0 1-2.179.754l-1.619.976a8.438 8.438 0 0 1 .144-3.67 8.521 8.521 0 0 1 1.69-3.274 8.363 8.363 0 0 1 1.546-1.414c.388 1.007.906 2.002.906 2.002Z"/><path fill="#FFB6B6" d="M74.237 57.459h-1.466l-.697-5.567h2.164v5.567Z"/><path fill="#2F2E41" d="M74.611 58.858h-4.727v-.059c0-.48.194-.941.54-1.28.344-.34.812-.531 1.3-.531l.864-.645 1.61.645h.413v1.87Z"/><path fill="#FFB6B6" d="M67.427 57.459H65.96l-.698-5.567h2.164v5.567Z"/><path fill="#2F2E41" d="M67.8 58.858h-4.726v-.059c0-.48.194-.941.539-1.28.345-.34.813-.531 1.3-.531l.864-.645 1.611.645h.413v1.87ZM66.792 27.026l9.535.234c1.811.969 1.839 3.065 1.246 5.553 0 0 .2 1.479-.2 1.873-.401.395-.602.395-.401 1.085.2.69-.858 1.818-.73 1.944.129.127.43.817.43.817l-1.002 5.62s-.701 9.762-.902 9.959c-.2.197-.4 0-.2.493s.4.296.2.493a7.308 7.308 0 0 0-.5.591h-2.422s-.183-.986-.183-1.084c0-.099-.2-.69-.2-.789 0-.099.177-.273.177-.273.061-.2.103-.406.124-.614 0-.198.6-7.79.6-7.79l-1.201-9.86-2.905 9.663s0 8.48-.2 8.677c-.2.197-.2.098-.1.493.1.394.5.296.2.591-.3.296-.4-.197-.3.296l.1.493-3.005.042s-.4-.83-.2-1.126c.2-.296.188-.215-.056-.7-.245-.484-.345-.582-.245-.68.1-.1.1-.624.1-.624l.501-9.434s.1-9.959.1-10.255a.972.972 0 0 0-.083-.443v-.402l.384-1.422 1.338-3.421Z"/><path fill="#E6E6E6" d="m57.052 29.564 1.611 1.28 8.785-6.705-.52-11.668a4.73 4.73 0 0 0-1.208 1.417 4.659 4.659 0 0 0-.561 1.767l-1.505 6.59-6.602 7.319Z"/><path fill="#E6E6E6" d="M65.37 29.973c3.109.392 5.974-.794 8.68-1.689 1.222-.403 2.453.018 3.587-.665-.49-4.756-.014-10.113 1.028-15.822a1.335 1.335 0 0 0-.175-.938 1.37 1.37 0 0 0-.76-.592l-3.357-.948-1.033-1.123-2.67.668-.934 1.662-3.212 2.136a1.16 1.16 0 0 0-.423.505c-.088.205-.115.43-.076.65.964 5.37.74 10.88-.656 16.156Z"/><path fill="#FFB6B6" d="M75.294 31.445c.285-.147.5-.398.598-.7a1.19 1.19 0 0 0-.184-1.09l2.378-3.55-2.223.001-1.918 3.371a1.2 1.2 0 0 0-.123 1.697 1.215 1.215 0 0 0 1.471.27Z"/><path fill="#E6E6E6" d="m74.622 28.13 1.456 1.843 5.094-7.471-.44-7.591a5.68 5.68 0 0 0-.883-2.724 5.794 5.794 0 0 0-2.108-1.968l.104 11.668-3.223 6.244Z"/><path fill="#FFB6B6" d="M70.965 7.762c1.799 0 3.257-1.436 3.257-3.207 0-1.772-1.458-3.207-3.257-3.207-1.8 0-3.258 1.435-3.258 3.207 0 1.771 1.458 3.207 3.258 3.207Z"/><path fill="#2F2E41" d="M68.889 2.673c.126 0 .251.017.373.048.24.057.485.097.731.12.755.07 1.463.387 2.013.9a3.32 3.32 0 0 1 1.021 1.93c.19-.163.62-.461.974-.184.005.005.008.007.02.001.235-.11.651-1.457.664-2.644.006-.63-.094-1.434-.612-1.689l-.027-.013-.007-.03c-.035-.141-.421-.383-1.092-.571-1.22-.342-3.039-1.009-4.063-.028-.078.33-.33 1.038-.584 1.118-.282.089-.526.166-.564.506-.032.485-.03.971.007 1.456.095-.297.283-.556.536-.742.18-.12.393-.182.61-.178Z"/><path fill="#CCC" d="M90 58.878a.12.12 0 0 1-.076.113.125.125 0 0 1-.048.009H.124a.125.125 0 0 1-.088-.036.121.121 0 0 1 0-.172.125.125 0 0 1 .088-.036h89.752a.127.127 0 0 1 .088.036.121.121 0 0 1 .036.086Z"/><path fill="#E6E6E6" d="m37.145 10.35-12.23 2.709c-.327.073-.612.27-.791.55-.18.28-.24.618-.166.94l3.353 14.674 14.368-3.182a.632.632 0 0 0 .311-.17L38.66 11.294a1.25 1.25 0 0 0-.56-.78 1.285 1.285 0 0 0-.954-.163Z"/><path fill="#fff" d="m32.702 12.37-6.701 1.485a1.155 1.155 0 0 0-.722.5 1.123 1.123 0 0 0-.151.857l3.153 13.796 12.76-2.826-2.295-10.047a4.987 4.987 0 0 0-2.231-3.113 5.13 5.13 0 0 0-3.813-.652Z"/><path fill="#E4E4E4" d="m38.588 25.438-8.413 1.863a.286.286 0 0 0-.177.122.273.273 0 0 0 .088.383.283.283 0 0 0 .212.035l8.413-1.863a.283.283 0 0 0 .177-.122.275.275 0 0 0-.19-.42.286.286 0 0 0-.11.002ZM38.344 24.37l-8.413 1.864a.281.281 0 0 0-.176.122.273.273 0 0 0 .087.382c.063.04.14.052.212.036l8.413-1.863a.281.281 0 0 0 .216-.223.273.273 0 0 0-.127-.281.283.283 0 0 0-.212-.037ZM33.334 24.359l-3.647.808a.281.281 0 0 0-.176.122.274.274 0 0 0 .087.381c.063.04.14.053.212.037l3.647-.808a.284.284 0 0 0 .176-.122.273.273 0 0 0-.087-.382.283.283 0 0 0-.212-.036ZM37.589 21.068l-8.413 1.863a.283.283 0 0 0-.176.122.274.274 0 0 0 .087.382c.063.04.14.053.212.037l8.413-1.864a.285.285 0 0 0 .176-.122.274.274 0 0 0-.087-.382.284.284 0 0 0-.212-.036ZM37.345 20l-8.413 1.864a.284.284 0 0 0-.176.122.275.275 0 0 0 .19.42.285.285 0 0 0 .11-.002l8.412-1.863a.283.283 0 0 0 .176-.122.273.273 0 0 0-.087-.382.283.283 0 0 0-.212-.036ZM32.335 19.988l-3.647.808a.284.284 0 0 0-.176.122.274.274 0 0 0 .087.383.286.286 0 0 0 .213.036l3.646-.808a.285.285 0 0 0 .177-.122.275.275 0 0 0-.19-.421.288.288 0 0 0-.11.002Z"/><path fill="#E6E6E6" d="m36.59 16.697-8.413 1.864a.281.281 0 0 0-.176.122.274.274 0 0 0 .087.382c.064.04.14.052.213.036l8.413-1.863a.283.283 0 0 0 .215-.223.273.273 0 0 0-.127-.282.283.283 0 0 0-.212-.036ZM36.346 15.63l-8.413 1.864a.281.281 0 0 0-.176.122.273.273 0 0 0 .088.382c.063.04.139.052.212.036l8.413-1.863a.284.284 0 0 0 .176-.122.274.274 0 0 0-.087-.383.286.286 0 0 0-.213-.036ZM31.336 15.618l-3.647.808a.282.282 0 0 0-.176.122.273.273 0 0 0 .088.382c.063.04.139.052.212.036l3.647-.808a.285.285 0 0 0 .176-.122.275.275 0 0 0-.19-.42.286.286 0 0 0-.11.002Z"/><path fill="#3F3D56" d="M12.748 27.375a.304.304 0 0 0-.213.087.294.294 0 0 0-.088.21v30.607c0 .079.032.154.088.21a.304.304 0 0 0 .213.086h38.981c.08 0 .156-.031.213-.087a.294.294 0 0 0 .088-.209V32.584a.294.294 0 0 0-.088-.209.303.303 0 0 0-.213-.087H29.356a.92.92 0 0 1-.614-.233l-5.03-4.5a.71.71 0 0 0-.474-.18h-10.49Z"/><path fill="#E6E6E6" d="m59.269 19.37-20.873-8.835a2.333 2.333 0 0 0-1.757-.021 2.283 2.283 0 0 0-1.26 1.206L24.442 36.765l24.524 10.38c.201.085.423.112.64.077L60.47 22.34a2.23 2.23 0 0 0 .023-1.73 2.28 2.28 0 0 0-1.225-1.24Z"/><path fill="#fff" d="M50.566 17.682 39.128 12.84a2.124 2.124 0 0 0-1.6-.02 2.08 2.08 0 0 0-1.148 1.097L26.097 37.465l21.781 9.219 7.489-17.148a8.905 8.905 0 0 0 .09-6.904 9.1 9.1 0 0 0-4.89-4.95Z"/><path fill="#E4E4E4" d="m45.08 43.022-14.359-6.078a.518.518 0 0 0-.557.101.502.502 0 0 0-.154.353.493.493 0 0 0 .145.357.508.508 0 0 0 .164.111l14.36 6.078a.518.518 0 0 0 .556-.101.5.5 0 0 0 .118-.546.503.503 0 0 0-.272-.275ZM45.877 41.2l-14.36-6.078a.518.518 0 0 0-.39-.005.506.506 0 0 0-.28.268.495.495 0 0 0-.005.384c.05.124.148.223.272.276l14.36 6.077a.517.517 0 0 0 .67-.263.493.493 0 0 0-.104-.548.51.51 0 0 0-.163-.111ZM38.537 35.935l-6.225-2.634a.519.519 0 0 0-.556.101.501.501 0 0 0-.118.545.5.5 0 0 0 .272.275l6.225 2.635a.516.516 0 0 0 .67-.263.494.494 0 0 0-.104-.548.511.511 0 0 0-.164-.11ZM48.338 35.563l-14.36-6.078a.517.517 0 0 0-.669.263.496.496 0 0 0 .267.66l14.36 6.077a.517.517 0 0 0 .67-.263.494.494 0 0 0-.104-.548.51.51 0 0 0-.164-.111ZM49.133 33.741l-14.359-6.077a.516.516 0 0 0-.67.262.497.497 0 0 0 .268.66l14.36 6.077a.516.516 0 0 0 .67-.263.496.496 0 0 0-.269-.659ZM41.794 28.476 35.57 25.84a.518.518 0 0 0-.39-.005.506.506 0 0 0-.28.268.495.495 0 0 0 .267.66l6.225 2.634a.517.517 0 0 0 .67-.262.493.493 0 0 0-.103-.55.51.51 0 0 0-.165-.11Z"/><path fill="#F9A826" d="m51.596 28.103-14.36-6.077a.517.517 0 0 0-.669.263.495.495 0 0 0 .266.66l14.36 6.077a.516.516 0 0 0 .67-.263.495.495 0 0 0-.103-.549.51.51 0 0 0-.164-.11ZM52.391 26.282l-14.36-6.078a.518.518 0 0 0-.39-.005.506.506 0 0 0-.279.268.495.495 0 0 0-.005.384c.05.124.148.223.272.276l14.36 6.077a.516.516 0 0 0 .67-.262.495.495 0 0 0-.103-.55.512.512 0 0 0-.165-.11ZM45.052 21.017l-6.225-2.635a.518.518 0 0 0-.39-.005.507.507 0 0 0-.28.268.495.495 0 0 0 .268.66l6.224 2.634a.517.517 0 0 0 .67-.263.493.493 0 0 0-.103-.548.51.51 0 0 0-.164-.111Z"/><path fill="#E6E6E6" d="m29.555 28.466-12.229 2.709c-.328.073-.613.27-.792.55-.18.28-.24.618-.166.94l3.353 14.674 14.369-3.182a.632.632 0 0 0 .31-.17L31.07 29.41a1.25 1.25 0 0 0-.56-.78 1.286 1.286 0 0 0-.955-.163Z"/><path fill="#fff" d="M25.113 30.487 18.41 31.97a1.155 1.155 0 0 0-.721.501 1.123 1.123 0 0 0-.152.856l3.153 13.796 12.761-2.826-2.296-10.047a4.987 4.987 0 0 0-2.23-3.112 5.13 5.13 0 0 0-3.813-.652Z"/><path fill="#E4E4E4" d="m30.998 43.554-8.413 1.864a.282.282 0 0 0-.216.222.273.273 0 0 0 .127.282.284.284 0 0 0 .213.036l8.413-1.864a.281.281 0 0 0 .216-.223.273.273 0 0 0-.127-.281.285.285 0 0 0-.213-.036ZM30.754 42.487l-8.413 1.863a.281.281 0 0 0-.176.122.274.274 0 0 0 .088.382c.063.04.139.053.212.036l8.413-1.863a.281.281 0 0 0 .176-.122.274.274 0 0 0-.088-.382.285.285 0 0 0-.212-.036ZM25.744 42.475l-3.647.808a.285.285 0 0 0-.175.122.275.275 0 0 0 .19.42.285.285 0 0 0 .109-.002l3.647-.808a.282.282 0 0 0 .216-.223.271.271 0 0 0-.048-.207.281.281 0 0 0-.292-.11ZM30 39.184l-8.414 1.863a.281.281 0 0 0-.176.122.273.273 0 0 0 .088.383c.063.039.14.052.212.036l8.413-1.864a.281.281 0 0 0 .176-.122.273.273 0 0 0-.087-.382.285.285 0 0 0-.212-.036ZM29.756 38.117l-8.413 1.863a.284.284 0 0 0-.177.122.274.274 0 0 0 .088.382.283.283 0 0 0 .212.036l8.413-1.863a.284.284 0 0 0 .176-.122.273.273 0 0 0-.087-.382.284.284 0 0 0-.212-.036ZM24.745 38.105l-3.646.808a.281.281 0 0 0-.176.122.274.274 0 0 0 .087.382c.063.04.14.052.212.036l3.647-.808a.281.281 0 0 0 .176-.122.273.273 0 0 0-.087-.382.286.286 0 0 0-.212-.036Z"/><path fill="#E6E6E6" d="m29 34.813-8.412 1.864a.284.284 0 0 0-.176.122.273.273 0 0 0 .087.382c.063.04.14.053.212.036l8.413-1.863a.283.283 0 0 0 .176-.122.275.275 0 0 0-.19-.421.285.285 0 0 0-.11.002ZM28.757 33.746l-8.413 1.864a.281.281 0 0 0-.176.122.273.273 0 0 0 .087.382c.063.04.14.052.212.036l8.413-1.863a.281.281 0 0 0 .176-.122.273.273 0 0 0-.087-.383.285.285 0 0 0-.212-.036ZM23.747 33.734l-3.647.808a.282.282 0 0 0-.176.122.273.273 0 0 0 .087.382c.063.04.14.053.212.037l3.647-.808a.281.281 0 0 0 .216-.223.273.273 0 0 0-.127-.282.284.284 0 0 0-.212-.036Z"/><path fill="#3F3D56" d="M12.49 35.415a.305.305 0 0 0-.278.182.29.29 0 0 0-.023.114l.009 22.806c.008.073.043.14.098.188a.303.303 0 0 0 .2.075h41.875a.304.304 0 0 0 .2-.075.294.294 0 0 0 .099-.188l2.606-22.773a.291.291 0 0 0-.074-.23.297.297 0 0 0-.224-.1H12.489Z"/><path fill="#F9A826" d="M15.444 36.677a1.63 1.63 0 0 0-1.134.461 1.58 1.58 0 0 0-.478 1.112l.052 17.667a1.565 1.565 0 0 0 .467 1.131 1.613 1.613 0 0 0 1.146.47h26.581a12.502 12.502 0 0 0 8.265-3.102c2.273-2 3.717-4.755 4.057-7.738l.942-8.236a1.565 1.565 0 0 0-.4-1.236 1.611 1.611 0 0 0-1.202-.53H15.444Zm40.735 0-.005-.103h.005v.103Z"/><path fill="#E4E4E4" d="M27.055 49.912H16.758a.404.404 0 0 1-.284-.115.391.391 0 0 1 0-.559.404.404 0 0 1 .284-.115h10.297c.518-.008.523.797 0 .79ZM40.927 51.979H16.758a.404.404 0 0 1-.284-.116.392.392 0 0 1 0-.559.405.405 0 0 1 .284-.115h24.17c.517-.008.522.797 0 .79Z"/></g><defs><clipPath id="a"><path fill="#fff" d="M0 0h90v59H0z"/></clipPath></defs></svg>