<svg xmlns="http://www.w3.org/2000/svg" width="96" height="96" fill="none"><g clip-path="url(#a)"><path fill="#F2F2F2" d="M96 48a47.922 47.922 0 0 1-2.832 16.283 48.057 48.057 0 0 1-10.742 17.165 47.898 47.898 0 0 1-3.443 3.214A47.752 47.752 0 0 1 55.44 95.426h-.002A48.867 48.867 0 0 1 48 96a47.85 47.85 0 0 1-35.28-15.455 48.662 48.662 0 0 1-3.34-4.04 47.817 47.817 0 0 1-7.682-15.81A48.054 48.054 0 0 1 0 48C0 21.49 21.49 0 48 0s48 21.49 48 48Z"/><path fill="#A0616A" d="M20.357 28.69a3.13 3.13 0 0 0 3.128 3.637l7.662 22.295 4.89-3.36-9.439-22.33a3.145 3.145 0 0 0-6.24-.241Z"/><path fill="#F9A826" d="M60.349 36.234c-3.403 3.872-11.793 10.694-18.705 15.392a82.397 82.397 0 0 1-4.21 2.695c-.872.517-1.683.964-2.413 1.33a3.977 3.977 0 0 1-5.455-2.06L24.78 42.013l1.656-1.098 4.083-2.708.927-.614 3.83 9.119 4.036-3.24 2.507-2.013 11.426-9.17.986-.292 2.299 2.243 1.626 1.588 1.53.266c.228.04.45.086.663.14Z"/><path fill="#fff" d="M90.876 68.047c.237.3.483.6.729.901a47.584 47.584 0 0 1-2.85 5.045 337.035 337.035 0 0 1-.269-.19c-.291-.206-.584-.411-.875-.618v-.002a9.945 9.945 0 0 1-.399-2.513.751.751 0 0 0 .175-1.4l-.104-.184.006-.052c.223-1.774 2.484-2.393 3.587-.987ZM93.425 61.969c.17.468.326.942.466 1.421-.096.284-.195.567-.297.85a23 23 0 0 0-.95-2.89 23.631 23.631 0 0 0-.877-1.923 24.192 24.192 0 0 0-7.38-8.592 6.44 6.44 0 0 1-3.327-1.957 4.947 4.947 0 0 1-.79-1.173 5.82 5.82 0 0 0 .389-.071l.12-.027.016-.003a.744.744 0 0 0 .263-1.332c-.073-.053-.147-.104-.22-.155-.11-.08-.222-.157-.334-.237a.35.35 0 0 1-.034-.024c-.128-.09-.256-.179-.382-.271.098-.317.267-.606.495-.847.794-.82 2.211-.8 3.137-.133.928.667 1.393 1.836 1.453 2.975.053.976-.158 1.941-.434 2.883.07.05.141.1.211.152a24.33 24.33 0 0 1 3.53 3.196c-.617-1.465-.842-3.377-.681-4.693.183-1.5.911-2.924 1.508-4.343.714-1.704 3.151-1.727 3.839-.011.007.017.014.032.02.05a6.62 6.62 0 0 0-.333.357 1.02 1.02 0 0 0 .893 1.676l.022-.003c.088.507.139 1.019.15 1.533a10.436 10.436 0 0 1-3.249 7.697c-.068.064-.135.126-.204.187a24.24 24.24 0 0 1 1.768 2.935c.46.899.866 1.825 1.212 2.773Z"/><path fill="#F9A826" d="m66.062 48.646-.43 29.455-34.644-.994 5.532-12.213c-.04-.392 2.429-3.143 2.415-3.55-.043-1.195.849-2.301.994-3.55.295-2.578-1.396-12.312-.617-14.323.333-.898.758-1.758 1.27-2.567.443-.67.898-1.122 1.332-1.286l1.281-2.985 1.136-1.704 8.914-2.64.986-.292 2.299 2.243 1.626 1.588 1.53.266c.228.04.45.086.663.14a6.738 6.738 0 0 1 2.792 1.383c2.67 2.268 2.98 6.535 2.92 11.03Z"/><path fill="#CCC" d="M85.958 77.88a47.684 47.684 0 0 1-3.105 3.524l-3.747.003-20.147.023-3.627.004-2.411.003-3.587.003-2.76.003-5.097.005-3.006.005-6.33.005-3.023.005-8.374.008-5.26.006-1.412.001a48.667 48.667 0 0 1-3.116-3.52l2.923-.003 1.99-.002 4.61-.005 8.896-.009 3.007-.003 1.215-.001h.004l.955-.001.427-.002 1.095-.001h.463l3.247-.003 7.002-.009 3.082-.002 2.95-.003 2.767-.003 3.97-.004 21.199-.022 5.2-.005Z"/><path fill="#2F2E41" d="M38.026 33.653h-.008a1.552 1.552 0 0 1-1.688-1.4l-.808-8.62c-.146-1.545.02-3.102.488-4.581a11.757 11.757 0 0 1 5.57-6.759 11.577 11.577 0 0 1 4.439-1.357c6.365-.607 8.69.719 12.623 10.427 3.931 9.707.808 8.633.808 8.633.02.207-.002.417-.065.616a1.58 1.58 0 0 1-1.344 1.09c-7.525 1.912-15.118 3.925-20.016 1.951Z"/><path fill="#9E616A" d="M52.031 19.104a8.534 8.534 0 0 1-8.678 13.16 8.436 8.436 0 0 1-5.431-3.574 8.534 8.534 0 0 1 8.672-13.156 8.436 8.436 0 0 1 5.437 3.57Z"/><path fill="#2F2E41" d="M32.854 24.59a9.153 9.153 0 0 1 .386-3.623c.085-2.86.916-5.452 4.405-5.344a9.157 9.157 0 0 1 3.487-1.07l1.724-.17.058-.005a9.137 9.137 0 0 1 9.945 8.25l.016.173-3.648.357-1.57-3.36.077 3.507-1.884.185-.792-1.696.038 1.768c-2.797 2.465-7.04 2.594-12.224 1.201l-.018-.173Z"/><path fill="#2F2E41" d="M44.524 32.77a1.558 1.558 0 0 0 .66 1.44 1.549 1.549 0 0 0 1.309.22l1.273-.358 1.427-3.979.327 3.492 5.79-1.612-1.388-14.817-9.869.972.27.261a6.82 6.82 0 0 1 1.851 3.198c.31 1.232.404 2.508.282 3.772a20.05 20.05 0 0 1-.707 3.776 29.564 29.564 0 0 1-1.115 3.214 1.555 1.555 0 0 0-.11.421Z"/><path fill="#3F3D56" d="M45.84 79.485c-.17 0-.337-.038-.49-.11l-27.34.697a1.147 1.147 0 0 1 .163-2.137l17.887-5.333c.185-.055.381-.063.57-.022l27.668 3.373a1.147 1.147 0 0 1 .131 2.206l-18.214 1.263c-.12.042-.247.063-.375.063Z"/><path fill="#2F2E41" d="M46.846 77.582a.721.721 0 0 1-.353-.092L24.29 78.528a.72.72 0 0 1 .182-1.328l8.039-1.95a.723.723 0 0 1 .38.01l20.642-.024a.72.72 0 0 1 .005 1.375l-6.477.938a.717.717 0 0 1-.214.033Z"/><path fill="#A0616A" d="M44.509 76.399a3.128 3.128 0 0 0 4.58-1.422l23.503 1.846L71.456 71l-24.242-.23a3.145 3.145 0 0 0-2.705 5.629Z"/><path fill="#F9A826" d="M58.39 38.48s3.55-2.84 7.811 2.272c2.873 3.447 8.416 24.29 8.875 32.927a3.974 3.974 0 0 1-4.06 4.184l-12.526-.218-1.401-7.875 9.89.117L58.39 38.48Z"/><path fill="#3F3D56" d="M44.32 79.489a3.23 3.23 0 0 1-1.252-.254l-25.34.578a3.22 3.22 0 0 1-1.939-3.49l-.942-22.255a3.215 3.215 0 0 1 3.4-2.71l23.526.977a3.23 3.23 0 0 1 2.97 3.77l2.757 20.7a3.235 3.235 0 0 1-3.18 2.683Z"/><path fill="#E6E6E6" d="m25.077 13.231-10.575-.03a1.071 1.071 0 0 0-1.073 1.067l-.038 14.004a1.069 1.069 0 0 0 1.065 1.07l5.867.018 4.71.012a1.069 1.069 0 0 0 1.071-1.066l.003-.828.037-13.175a1.07 1.07 0 0 0-1.067-1.072Z"/><path fill="#fff" d="m24.332 14.068-9.09-.026a1.003 1.003 0 0 0-1.003.998l-.026 9.004a4.465 4.465 0 0 0 4.448 4.472l1.727.004 3.904.012a1.002 1.002 0 0 0 1.004-.999l.003-.906.031-11.555a1.002 1.002 0 0 0-.998-1.004Z"/><path fill="#F9A826" d="M23.31 20.22h-7.086a.426.426 0 0 0 0 .85h7.087a.425.425 0 1 0 0-.85ZM17.782 17.888h-1.558a.425.425 0 1 0 0 .85h1.558a.425.425 0 1 0 0-.85ZM23.31 23.959h-7.086a.425.425 0 1 0 0 .85h7.087a.426.426 0 0 0 0-.85ZM23.31 22.09h-7.086a.425.425 0 0 0 0 .85h7.087a.425.425 0 0 0 0-.85ZM21.934 19.392a2.517 2.517 0 1 1 0-5.033 2.517 2.517 0 0 1 0 5.033Zm0-4.857a2.34 2.34 0 1 0 0 4.681 2.34 2.34 0 0 0 0-4.681Z"/><path fill="#F9A826" d="M22.99 17.85a6.467 6.467 0 0 0-1.062-2.494.133.133 0 0 0-.226 0 6.909 6.909 0 0 0-.862 2.604c-.02.167.242.165.262 0a6.46 6.46 0 0 1 .172-.88.153.153 0 0 0 .03-.01c.348-.175.742-.239 1.129-.184h.01c.127.336.226.682.294 1.034.032.166.285.095.253-.07Zm-1.621-1.093c.12-.373.273-.735.458-1.081.195.298.364.612.506.939a2.214 2.214 0 0 0-.964.143Z"/></g><defs><clipPath id="a"><path fill="#fff" d="M0 0h96v96H0z"/></clipPath></defs></svg>